<svg version="1.1" xmlns="http://www.w3.org/2000/svg" x="0px" y="0px" width="66.167px" height="20.333px" viewBox="0 0 66.167 20.333" enable-background="new 0 0 66.167 20.333" xml:space="preserve">
<path fill="#F58220" d="M3.781,5.939c0-1.35,0.78-2.761,3.3-2.761c1.29,0,2.819,0.391,4.229,1.202l0.12-2.4 c-1.29-0.57-2.7-0.87-4.35-0.87c-4.199,0-6,2.219-6,4.949c0,5.099,7.979,5.579,7.979,9.028c0,1.351-1.049,2.76-3.509,2.76 c-1.56,0-3-0.509-4.199-1.26l-0.33,2.401c1.409,0.69,3.149,0.959,4.589,0.959c3.869,0,6.089-2.25,6.089-5.009 C11.7,10.11,3.781,9.449,3.781,5.939z"/>
<path fill="#F58220" d="M18.721,7.859c0.21-0.12,0.63-0.24,1.56-0.24c1.56,0,2.189,0.27,2.189,1.439h2.16c0-0.329,0-0.72-0.03-0.989 c-0.21-1.8-1.95-2.43-4.439-2.43c-2.73,0-6.089,2.1-6.089,7.049c0,4.738,2.52,7.259,6.029,7.259c1.53,0,3.149-0.33,4.5-1.26 l-0.18-2.1c-0.9,0.751-2.58,1.38-3.69,1.38c-1.95,0-4.139-1.56-4.139-5.369C16.591,8.939,18.481,8.009,18.721,7.859z"/>
<rect x="27.031" y="5.999" fill="#F58220" width="2.31" height="13.588"/>
<path fill="#F58220" d="M28.171,0.299c-0.84,0-1.5,0.841-1.5,1.65c0,0.84,0.69,1.68,1.5,1.68s1.53-0.869,1.53-1.709 C29.701,1.081,28.981,0.299,28.171,0.299z"/>
<path fill="#F58220" d="M58.466,7.918l0.211-1.919h-1.8L56.368,7.08c-0.811-1.051-2.191-1.44-3.42-1.44 c-4.229,0-6.508,2.759-6.508,7.469c0,4.409,2.549,6.869,5.818,6.869c1.71,0,3.061-0.569,4.169-2.25l0.09,0.57 c0.061,0.39,0.18,0.839,0.33,1.289h2.25c-0.331-0.959-0.631-3.03-0.631-4.048V7.918z M56.158,14.849 c-0.871,2.099-2.04,3.149-3.51,3.149c-1.919,0-3.72-1.32-3.72-5.219c0-3,1.291-4.289,1.65-4.649c0.21-0.21,1.35-0.51,2.43-0.51 c2.04,0,3.15,1.351,3.15,4.379V14.849z"/>
<rect x="62.668" fill="#F58220" width="2.31" height="19.587"/>
<path fill="#F58220" d="M39.961,20h-1.16l-7.38-18.333h2.47l5.566,14.017l5.206-14.017h2.323L39.961,20z"/></svg>