<svg xmlns="http://www.w3.org/2000/svg" id="wordmark-sciencedirect-orange" viewBox="-3334 3439.4 163 26" width="163" height="26" y="4263"><style>.sst0{fill:#e9711c}</style><g transform="scale(.8125)"><path class="sst0" d="M-4099.8 4240.4c0-1.8 1-3.6 4.4-3.6 1.7 0 3.7.5 5.5 1.6l.2-3.1c-1.7-.7-3.5-1.1-5.6-1.1-5.5 0-7.8 2.9-7.8 6.4 0 6.6 10.4 7.2 10.4 11.7 0 1.8-1.4 3.6-4.6 3.6-2 0-4-.7-5.6-1.6l-.4 3.1c1.8.9 4.2 1.2 6.1 1.2 5 0 7.9-2.9 7.9-6.5-.1-6.3-10.5-7.2-10.5-11.7"/><path id="sc" class="sst0" d="M-4080.3 4242.9c.3-.1.8-.3 2-.3 2 0 2.9.4 2.9 1.9h2.8v-1.3c-.3-2.3-2.5-3.2-5.8-3.2-3.6 0-7.9 2.7-7.9 9.2 0 6.2 3.3 9.4 7.8 9.4 2 0 4.1-.4 5.9-1.6l-.2-2.7c-1.2 1-3.4 1.8-4.8 1.8-2.5 0-5.4-2-5.4-7-.1-4.8 2.4-6 2.7-6.2"/><path id="si" class="sst0" d="M-4068 4233.1c-1.1 0-1.9 1.1-1.9 2.1 0 1.1.9 2.2 1.9 2.2s2-1.1 2-2.2-1-2.1-2-2.1m-1.5 25h3v-17.7h-3v17.7z"/><path id="se" class="sst0" d="M-4057.1 4243.1c.2-.2 1.5-.5 2.3-.5 2.9 0 4.4.6 4.6 4.1h-8.8c.3-2.3 1.6-3.4 1.9-3.6zm9.6 5.8c0-6.1-1.7-8.9-7.1-8.9-4.6 0-7.9 3.3-7.9 9.4 0 5.8 3.5 9.2 7.9 9.2 3.3 0 5.1-.7 6.7-1.7l-.2-2.7c-1.1.9-3.5 1.8-5.5 1.8-3.7 0-5.8-2.3-5.8-6.5v-.6h11.9"/><path class="sst0" d="M-4034.8 4240c-2.6 0-4.3 1.3-5.7 3.1l-.5-2.6h-2.8l.2 1.4c.1.9.2 2.1.2 3.5v12.8h3v-11.9c.8-1.1 2.5-2.9 2.9-3.1.3-.2 1.5-.5 2.5-.5 2.7 0 2.9 1.4 3 4v3.7c0 3.5-.1 7.6-.1 7.6h3s.1-5.3.1-8.2c0-1.8 0-3.5-.1-5.3-.4-3.5-2.5-4.5-5.7-4.5M-3982.5 4255.6h-4.4V4237h4.8c6.4 0 8.2 5.2 8.2 9.2.1 6-2.6 9.4-8.6 9.4zm.9-21h-8.4v23.5h8.1c8.6 0 11.5-6.7 11.5-11.9 0-5.3-2.8-11.6-11.2-11.6M-3950.5 4240c-1.9 0-3.4 1.7-4 3.2l-.5-2.8h-2.8l.2 1.4c.1.9.2 2.1.2 3.4v12.8h3v-11.2c.6-1.5 2-4.4 3.7-4.4 1.1 0 1.2 1.2 1.2 1.4l2.5-.7v-.2s0-.2-.1-.5c-.3-1.5-1.4-2.4-3.4-2.4M-3903.5 4255.2c-1.1.4-2 .8-3 .8-1.4 0-1.9-.8-1.9-2.8v-10.4h4.6v-2.3h-4.6v-4.7h-2.9v4.7h-3.2v2.3h3.2v11.4c0 3.1 1.6 4.4 3.9 4.4 1.4 0 3-.5 4.1-.9l-.2-2.5"/><path id="sc_1_" class="sst0" d="M-3923.3 4242.9c.3-.1.8-.3 2-.3 2 0 2.9.4 2.9 1.9h2.8v-1.3c-.3-2.3-2.5-3.2-5.8-3.2-3.6 0-7.9 2.7-7.9 9.2 0 6.2 3.3 9.4 7.8 9.4 2 0 4.1-.4 5.9-1.6l-.2-2.7c-1.2 1-3.4 1.8-4.8 1.8-2.5 0-5.4-2-5.4-7-.1-4.8 2.4-6 2.7-6.2"/><path id="se_1_" class="sst0" d="M-3941.6 4243.1c.2-.2 1.5-.5 2.3-.5 2.9 0 4.4.6 4.6 4.1h-8.8c.3-2.3 1.7-3.4 1.9-3.6zm9.6 5.8c0-6.1-1.7-8.9-7.1-8.9-4.6 0-7.9 3.3-7.9 9.4 0 5.8 3.5 9.2 7.9 9.2 3.3 0 5.1-.7 6.7-1.7l-.2-2.7c-1.1.9-3.5 1.8-5.5 1.8-3.7 0-5.8-2.3-5.8-6.5v-.6h11.9"/><path id="si_1_" class="sst0" d="M-3964.5 4233.1c-1.1 0-1.9 1.1-1.9 2.1 0 1.1.9 2.2 1.9 2.2s2-1.1 2-2.2-.9-2.1-2-2.1m-1.4 25h3v-17.7h-3v17.7z"/><path id="se_2_" class="sst0" d="M-4004.4 4243.1c.2-.2 1.5-.5 2.3-.5 2.9 0 4.4.6 4.6 4.1h-8.8c.3-2.3 1.7-3.4 1.9-3.6zm9.7 5.8c0-6.1-1.7-8.9-7.1-8.9-4.6 0-7.9 3.3-7.9 9.4 0 5.8 3.5 9.2 7.9 9.2 3.3 0 5.1-.7 6.7-1.7l-.2-2.7c-1.1.9-3.5 1.8-5.5 1.8-3.7 0-5.8-2.3-5.8-6.5v-.6h11.9"/><path id="sc_2_" class="sst0" d="M-4019.1 4242.9c.3-.1.8-.3 2-.3 2 0 2.9.4 2.9 1.9h2.8v-1.3c-.3-2.3-2.5-3.2-5.8-3.2-3.6 0-7.9 2.7-7.9 9.2 0 6.2 3.3 9.4 7.8 9.4 2 0 4.1-.4 5.9-1.6l-.2-2.7c-1.2 1-3.4 1.8-4.8 1.8-2.5 0-5.4-2-5.4-7 0-4.8 2.4-6 2.7-6.2"/></g></svg>